<?xml version="1.0" encoding="UTF-8"?><svg xmlns="http://www.w3.org/2000/svg" xmlns:xlink="http://www.w3.org/1999/xlink" fill-opacity="1" color-rendering="auto" color-interpolation="auto" text-rendering="auto" stroke="black" stroke-linecap="square" width="797" stroke-miterlimit="10" shape-rendering="auto" stroke-opacity="1" fill="black" stroke-dasharray="none" font-weight="normal" stroke-width="1" height="506" font-family="'Dialog'" font-style="normal" stroke-linejoin="miter" font-size="12px" stroke-dashoffset="0" image-rendering="auto">
  <!--Generated by ySVG 2.5-->
  <defs id="genericDefs"/>
  <g>
    <g fill="white" text-rendering="geometricPrecision" shape-rendering="geometricPrecision" transform="translate(-344,-452)" stroke="white">
      <rect x="344" width="797" height="506" y="452" clip-path="url(#clipPath2)" stroke="none"/>
    </g>
    <g text-rendering="geometricPrecision" shape-rendering="geometricPrecision" transform="matrix(1,0,0,1,253.1165,296.6256)">
      <g clip-path="url(#clipPath3)">
        <svg xml:space="preserve" opacity="1" writing-mode="lr-tb" stop-color="rgb(0, 0, 0)" shape-rendering="auto" glyph-orientation-horizontal="0deg" color-profile="auto" lighting-color="rgb(255, 255, 255)" color="rgb(0, 0, 0)" font-weight="400" alignment-baseline="auto" font-style="normal" version="1.1" color-interpolation-filters="linearrgb" text-anchor="start" stroke-linecap="butt" color-interpolation="srgb" font-variant="normal" word-spacing="normal" fill-opacity="1" text-rendering="auto" clip-path="none" text-decoration="none" letter-spacing="normal" viewBox="-1 -0.044 71 43" glyph-orientation-vertical="auto" display="inline" font-size-adjust="none" overflow="visible" fill="rgb(0, 0, 0)" font-stretch="normal" stroke-dasharray="none" stroke-miterlimit="4" stop-opacity="1" color-rendering="auto" font-size="12" pointer-events="visiblepainted" mask="none" direction="ltr" baseline-shift="baseline" enable-background="new -1 -0.044 71 43" fill-rule="nonzero" image-rendering="auto" stroke-dashoffset="0" width="71px" marker-end="none" clip="auto" cursor="auto" stroke="none" filter="none" visibility="visible" kerning="auto" stroke-width="1" font-family="&quot;Arial&quot;,&quot;Helvetica&quot;,sans-serif" flood-opacity="1" clip-rule="nonzero" src="none" height="43px" unicode-bidi="normal" stroke-linejoin="miter" stroke-opacity="1" flood-color="rgb(0, 0, 0)" dominant-baseline="auto" marker-start="none" x="0px" marker-mid="none" y="0px">
<defs>
<linearGradient x1="1006.3016" gradientUnits="userSpaceOnUse" x2="1125.7256" y1="467.5238" y2="503.9398" id="linearGradient1" spreadMethod="reflect">
              <stop stop-opacity="1" stop-color="rgb(232,238,247)" offset="0%"/>
              <stop stop-opacity="1" stop-color="rgb(183,201,227)" offset="100%"/>
            </linearGradient>
            <linearGradient x1="898.9631" gradientUnits="userSpaceOnUse" x2="994.3231" y1="503.9398" y2="527.0438" id="linearGradient2" spreadMethod="reflect">
              <stop stop-opacity="1" stop-color="rgb(232,238,247)" offset="0%"/>
              <stop stop-opacity="1" stop-color="rgb(183,201,227)" offset="100%"/>
            </linearGradient>
            <linearGradient x1="794.8246" gradientUnits="userSpaceOnUse" x2="890.1847" y1="474.1798" y2="497.2838" id="linearGradient3" spreadMethod="reflect">
              <stop stop-opacity="1" stop-color="rgb(232,238,247)" offset="0%"/>
              <stop stop-opacity="1" stop-color="rgb(183,201,227)" offset="100%"/>
            </linearGradient>
            <linearGradient x1="889.8751" gradientUnits="userSpaceOnUse" x2="999.8751" y1="565.4918" y2="588.5958" id="linearGradient4" spreadMethod="reflect">
              <stop stop-opacity="1" stop-color="rgb(232,238,247)" offset="0%"/>
              <stop stop-opacity="1" stop-color="rgb(183,201,227)" offset="100%"/>
            </linearGradient>
            <linearGradient x1="898.9631" gradientUnits="userSpaceOnUse" x2="990.7871" y1="750.1478" y2="790.1478" id="linearGradient5" spreadMethod="reflect">
              <stop stop-opacity="1" stop-color="rgb(232,238,247)" offset="0%"/>
              <stop stop-opacity="1" stop-color="rgb(183,201,227)" offset="100%"/>
            </linearGradient>
            <linearGradient x1="919.0431" gradientUnits="userSpaceOnUse" x2="974.2431" y1="820.1478" y2="843.2518" id="linearGradient6" spreadMethod="reflect">
              <stop stop-opacity="1" stop-color="rgb(232,238,247)" offset="0%"/>
              <stop stop-opacity="1" stop-color="rgb(183,201,227)" offset="100%"/>
            </linearGradient>
            <linearGradient x1="698.8677" gradientUnits="userSpaceOnUse" x2="754.0677" y1="635.4918" y2="658.5958" id="linearGradient7" spreadMethod="reflect">
              <stop stop-opacity="1" stop-color="rgb(232,238,247)" offset="0%"/>
              <stop stop-opacity="1" stop-color="rgb(183,201,227)" offset="100%"/>
            </linearGradient>
            <linearGradient x1="755.4477" gradientUnits="userSpaceOnUse" x2="810.6477" y1="758.5958" y2="781.6998" id="linearGradient8" spreadMethod="reflect">
              <stop stop-opacity="1" stop-color="rgb(232,238,247)" offset="0%"/>
              <stop stop-opacity="1" stop-color="rgb(183,201,227)" offset="100%"/>
            </linearGradient>
            <linearGradient x1="755.4477" gradientUnits="userSpaceOnUse" x2="839.503" y1="811.6998" y2="848.1158" id="linearGradient9" spreadMethod="reflect">
              <stop stop-opacity="1" stop-color="rgb(232,238,247)" offset="0%"/>
              <stop stop-opacity="1" stop-color="rgb(183,201,227)" offset="100%"/>
            </linearGradient>
            <linearGradient x1="449.4214" gradientUnits="userSpaceOnUse" x2="544.7814" y1="758.5958" y2="781.6998" id="linearGradient10" spreadMethod="reflect">
              <stop stop-opacity="1" stop-color="rgb(232,238,247)" offset="0%"/>
              <stop stop-opacity="1" stop-color="rgb(183,201,227)" offset="100%"/>
            </linearGradient>
            <linearGradient x1="900.7311" gradientUnits="userSpaceOnUse" x2="989.0191" y1="627.0438" y2="667.0438" id="linearGradient11" spreadMethod="reflect">
              <stop stop-opacity="1" stop-color="rgb(232,238,247)" offset="0%"/>
              <stop stop-opacity="1" stop-color="rgb(183,201,227)" offset="100%"/>
            </linearGradient>
            <linearGradient x1="885.1631" gradientUnits="userSpaceOnUse" x2="1004.5871" y1="697.0438" y2="720.1478" id="linearGradient12" spreadMethod="reflect">
              <stop stop-opacity="1" stop-color="rgb(232,238,247)" offset="0%"/>
              <stop stop-opacity="1" stop-color="rgb(183,201,227)" offset="100%"/>
            </linearGradient>
            <clipPath clipPathUnits="userSpaceOnUse" id="clipPath1">
              <path d="M0 0 L797 0 L797 506 L0 506 L0 0 Z"/>
            </clipPath>
            <clipPath clipPathUnits="userSpaceOnUse" id="clipPath2">
              <path d="M344 452 L1141 452 L1141 958 L344 958 L344 452 Z"/>
            </clipPath>
            <clipPath clipPathUnits="userSpaceOnUse" id="clipPath3">
              <path d="M-253.1165 -296.6256 L543.8835 -296.6256 L543.8835 209.3744 L-253.1165 209.3744 L-253.1165 -296.6256 Z"/>
            </clipPath>
            <clipPath clipPathUnits="userSpaceOnUse" id="clipPath4">
              <path d="M-583.0181 -421.2518 L213.9819 -421.2518 L213.9819 84.7482 L-583.0181 84.7482 L-583.0181 -421.2518 Z"/>
            </clipPath>
            <clipPath clipPathUnits="userSpaceOnUse" id="clipPath5">
              <path d="M-16.504 -323.9136 L861.0861 -323.9136 L861.0861 245.631 L-16.504 245.631 L-16.504 -323.9136 Z"/>
            </clipPath>
          </defs>
<linearGradient gradientTransform="matrix(1 0 0 1 -760.5996 -1807.4023)" x1="807.2808" x2="783.5425" gradientUnits="userSpaceOnUse" y1="1849.3247" y2="1849.3247" id="svg1.SVGID_1_">
	<stop offset="0" style="stop-color:#4D4D4D"/>
	<stop offset="1" style="stop-color:#999999"/>
</linearGradient>
<path fill="url(#svg1.SVGID_1_)" d="M46.527,40.407c0,0.965-6.758,1.404-12.371,1.404c-3.889,0-10.914-0.349-11.367-1.268  c0,0.446,0,1.502,0,1.661c0,0.726,4.803,1.233,11.357,1.233c6.554,0,12.381-0.643,12.381-1.36  C46.527,41.921,46.527,40.87,46.527,40.407z" display="none"/>
<path fill="#808080" d="M34.658,39.2c6.556,0,11.869,0.584,11.869,1.307c0,0.721-5.313,1.42-11.869,1.42  c-6.701,0-11.869-0.697-11.869-1.42S28.104,39.2,34.658,39.2z" display="none"/>
<linearGradient gradientTransform="matrix(1 0 0 1 -760.5996 -1807.4023)" x1="797.8442" x2="792.8472" gradientUnits="userSpaceOnUse" y1="1843.356" y2="1843.356" id="svg1.SVGID_2_">
	<stop offset="0" style="stop-color:#999999"/>
	<stop offset="0.0417" style="stop-color:#8D8D8D"/>
	<stop offset="0.1617" style="stop-color:#717171"/>
	<stop offset="0.2821" style="stop-color:#5D5D5D"/>
	<stop offset="0.4021" style="stop-color:#515151"/>
	<stop offset="0.5212" style="stop-color:#4D4D4D"/>
	<stop offset="0.6202" style="stop-color:#565656"/>
	<stop offset="0.7817" style="stop-color:#6E6E6E"/>
	<stop offset="0.9844" style="stop-color:#969696"/>
	<stop offset="1" style="stop-color:#999999"/>
</linearGradient>
<path fill="url(#svg1.SVGID_2_)" d="M37.212,40.79c0,0-1.477,0.096-2.498,0.096s-2.499-0.096-2.499-0.096v-9.768h4.997  V40.79z" display="none"/>
<linearGradient y2="42.0806" id="svg1.SVGID_3_" x1="52.1938" gradientUnits="userSpaceOnUse" x2="17.5693" y1="42.0806">
	<stop offset="0" style="stop-color:#999999"/>
	<stop offset="0.0417" style="stop-color:#8D8D8D"/>
	<stop offset="0.1617" style="stop-color:#717171"/>
	<stop offset="0.2821" style="stop-color:#5D5D5D"/>
	<stop offset="0.4021" style="stop-color:#515151"/>
	<stop offset="0.5212" style="stop-color:#4D4D4D"/>
	<stop offset="0.6202" style="stop-color:#565656"/>
	<stop offset="0.7817" style="stop-color:#6E6E6E"/>
	<stop offset="0.9844" style="stop-color:#969696"/>
	<stop offset="1" style="stop-color:#999999"/>
</linearGradient>
<path fill="url(#svg1.SVGID_3_)" d="M51.97,42.018c0,0.516-0.45,0.938-1,0.938H18.345c-0.55,0-1-0.422-1-0.938s0.249-0.813,0.249-0.813  l34.146,0.028C51.74,41.234,51.97,41.502,51.97,42.018z"/>
<linearGradient y2="39.5415" id="svg1.SVGID_4_" x1="52.0024" gradientUnits="userSpaceOnUse" x2="17.7529" y1="39.5415">
	<stop offset="0" style="stop-color:#999999"/>
	<stop offset="0.0417" style="stop-color:#8D8D8D"/>
	<stop offset="0.1617" style="stop-color:#717171"/>
	<stop offset="0.2821" style="stop-color:#5D5D5D"/>
	<stop offset="0.4021" style="stop-color:#515151"/>
	<stop offset="0.5212" style="stop-color:#4D4D4D"/>
	<stop offset="0.6202" style="stop-color:#565656"/>
	<stop offset="0.7817" style="stop-color:#6E6E6E"/>
	<stop offset="0.9844" style="stop-color:#969696"/>
	<stop offset="1" style="stop-color:#999999"/>
</linearGradient>
<path fill="url(#svg1.SVGID_4_)" d="M51.782,41.286h-34.25l2.179-2.714c0.349-0.426,1.083-0.774,1.633-0.774h26.625  c0.55,0,1.285,0.349,1.633,0.774L51.782,41.286z"/>
<linearGradient gradientTransform="matrix(1 0 0 1 -760.5996 -1807.4023)" x1="797.8442" x2="792.8472" gradientUnits="userSpaceOnUse" y1="1842.3892" y2="1842.3892" id="svg1.SVGID_5_">
	<stop offset="0" style="stop-color:#999999"/>
	<stop offset="0.0417" style="stop-color:#8D8D8D"/>
	<stop offset="0.1617" style="stop-color:#717171"/>
	<stop offset="0.2821" style="stop-color:#5D5D5D"/>
	<stop offset="0.4021" style="stop-color:#515151"/>
	<stop offset="0.5212" style="stop-color:#4D4D4D"/>
	<stop offset="0.6202" style="stop-color:#565656"/>
	<stop offset="0.7817" style="stop-color:#6E6E6E"/>
	<stop offset="0.9844" style="stop-color:#969696"/>
	<stop offset="1" style="stop-color:#999999"/>
</linearGradient>
<path fill="url(#svg1.SVGID_5_)" d="M37.212,39.694c0,0-1.478,0.354-2.499,0.354c-1.021,0-2.499-0.354-2.499-0.354v-9.768h4.997V39.694z"/>
<radialGradient gradientTransform="matrix(1.513 0 0 1 -973.8635 -1807.4023)" id="svg1.SVGID_6_" r="24.0778" cx="657.0923" gradientUnits="userSpaceOnUse" cy="1817.3071">
	<stop offset="0" style="stop-color:#F2F2F2"/>
	<stop offset="1" style="stop-color:#666666"/>
</radialGradient>
<path fill="url(#svg1.SVGID_6_)" d="M0.14,2.14c0-1.1,1.184-2,2.631-2h63.474c1.446,0,2.631,0.9,2.631,2v30.073c0,1.101-1.185,2-2.631,2  H2.771c-1.447,0-2.631-0.899-2.631-2V2.14z"/>
<path stroke-linecap="round" fill="none" stroke-linejoin="round" d="  M0.14,2.14c0-1.1,1.184-2,2.631-2h63.474c1.446,0,2.631,0.9,2.631,2v30.073c0,1.101-1.185,2-2.631,2H2.771  c-1.447,0-2.631-0.899-2.631-2V2.14z" stroke="#666666" stroke-width="0.2794" stroke-miterlimit="10"/>
<radialGradient gradientTransform="matrix(1.5073 0 0 1 -921.6763 -1807.4023)" gradientUnits="userSpaceOnUse" r="53.3331" cx="635.0688" id="svg1.SVGID_7_" cy="1809.1597" fx="677.0258" fy="1801.9722">
	<stop offset="0" style="stop-color:#4D4D4D"/>
	<stop offset="1" style="stop-color:#999999"/>
</radialGradient>
<path fill="url(#svg1.SVGID_7_)" d="M2.813,3.161c0-1.1,1.136-2,2.525-2h58.636c1.389,0,2.525,0.9,2.525,2v27.805c0,1.1-1.137,2-2.525,2  H5.339c-1.389,0-2.525-0.9-2.525-2V3.161z"/>
<radialGradient gradientTransform="matrix(1.5102 0 0 1 -924.7913 -1807.4023)" id="svg1.SVGID_8_" r="34.1874" cx="636.0776" gradientUnits="userSpaceOnUse" cy="1809.2437">
	<stop offset="0" style="stop-color:#9CD7FF"/>
	<stop offset="1" style="stop-color:#3C89C9"/>
</radialGradient>
<path fill="url(#svg1.SVGID_8_)" d="M3.439,3.616c0-1.1,1.14-2,2.533-2h57.371c1.394,0,2.532,0.9,2.532,2V30.51c0,1.1-1.139,2-2.532,2  H5.972c-1.393,0-2.533-0.9-2.533-2V3.616z"/>
<path fill="#F2F2F2" d="M3.356,23.653V3.616c0-1.1,1.143-2,2.54-2h57.522  c1.398,0,2.54,0.9,2.54,2v13.539c0,0-17.706,2.838-34.415,4.549C14.834,23.414,3.356,23.653,3.356,23.653z" enable-background="new    " opacity="0.24"/>
</svg>
      </g>
    </g>
    <g text-rendering="geometricPrecision" stroke-miterlimit="1.45" shape-rendering="geometricPrecision" font-family="sans-serif" transform="matrix(1,0,0,1,-344,-452)" stroke-linecap="butt">
      <text x="573.5532" xml:space="preserve" y="809.2272" clip-path="url(#clipPath2)" stroke="none">ASaiM Web interface</text>
    </g>
    <g text-rendering="geometricPrecision" shape-rendering="geometricPrecision" transform="matrix(1,0,0,1,583.0181,421.2518)">
      <g clip-path="url(#clipPath4)">
        <svg xml:space="preserve" opacity="1" writing-mode="lr-tb" stop-color="rgb(0, 0, 0)" shape-rendering="auto" glyph-orientation-horizontal="0deg" color-profile="auto" lighting-color="rgb(255, 255, 255)" color="rgb(0, 0, 0)" font-weight="400" alignment-baseline="auto" font-style="normal" version="1.1" color-interpolation-filters="linearrgb" text-anchor="start" stroke-linecap="butt" color-interpolation="srgb" font-variant="normal" word-spacing="normal" fill-opacity="1" text-rendering="auto" clip-path="none" text-decoration="none" letter-spacing="normal" viewBox="0 0 40 48" glyph-orientation-vertical="auto" display="inline" font-size-adjust="none" overflow="visible" fill="rgb(0, 0, 0)" font-stretch="normal" stroke-dasharray="none" stroke-miterlimit="4" stop-opacity="1" color-rendering="auto" font-size="12" pointer-events="visiblepainted" mask="none" direction="ltr" baseline-shift="baseline" enable-background="new 0 0 40 48" fill-rule="nonzero" image-rendering="auto" stroke-dashoffset="0" width="40px" marker-end="none" clip="auto" cursor="auto" stroke="none" filter="none" visibility="visible" kerning="auto" stroke-width="1" font-family="&quot;Arial&quot;,&quot;Helvetica&quot;,sans-serif" flood-opacity="1" clip-rule="nonzero" src="none" height="48px" unicode-bidi="normal" stroke-linejoin="miter" stroke-opacity="1" flood-color="rgb(0, 0, 0)" dominant-baseline="auto" marker-start="none" x="0px" marker-mid="none" y="0px">
<defs>
</defs>
<linearGradient gradientTransform="matrix(1 0 0 1 -370.2002 -614.5742)" x1="370.2002" x2="409.4502" gradientUnits="userSpaceOnUse" y1="655.0938" y2="655.0938" id="svg2.SVGID_1_">
	<stop offset="0" style="stop-color:#4D4D4D"/>
	<stop offset="0.0558" style="stop-color:#5F5F5F"/>
	<stop offset="0.2103" style="stop-color:#8D8D8D"/>
	<stop offset="0.3479" style="stop-color:#AEAEAE"/>
	<stop offset="0.4623" style="stop-color:#C2C2C2"/>
	<stop offset="0.5394" style="stop-color:#C9C9C9"/>
	<stop offset="0.6247" style="stop-color:#C5C5C5"/>
	<stop offset="0.7072" style="stop-color:#BABABA"/>
	<stop offset="0.7885" style="stop-color:#A6A6A6"/>
	<stop offset="0.869" style="stop-color:#8B8B8B"/>
	<stop offset="0.9484" style="stop-color:#686868"/>
	<stop offset="1" style="stop-color:#4D4D4D"/>
</linearGradient>
<path fill="url(#svg2.SVGID_1_)" d="M19.625,37.613C8.787,37.613,0,35.738,0,33.425v10c0,2.313,8.787,4.188,19.625,4.188  c10.839,0,19.625-1.875,19.625-4.188v-10C39.25,35.738,30.464,37.613,19.625,37.613z"/>
<linearGradient gradientTransform="matrix(1 0 0 1 -370.2002 -614.5742)" x1="370.2002" x2="409.4502" gradientUnits="userSpaceOnUse" y1="649.0938" y2="649.0938" id="svg2.SVGID_2_">
	<stop offset="0" style="stop-color:#B3B3B3"/>
	<stop offset="0.0171" style="stop-color:#B6B6B6"/>
	<stop offset="0.235" style="stop-color:#D7D7D7"/>
	<stop offset="0.4168" style="stop-color:#EBEBEB"/>
	<stop offset="0.5394" style="stop-color:#F2F2F2"/>
	<stop offset="0.6579" style="stop-color:#EEEEEE"/>
	<stop offset="0.7724" style="stop-color:#E3E3E3"/>
	<stop offset="0.8853" style="stop-color:#CFCFCF"/>
	<stop offset="0.9965" style="stop-color:#B4B4B4"/>
	<stop offset="1" style="stop-color:#B3B3B3"/>
</linearGradient>
<path fill="url(#svg2.SVGID_2_)" d="M19.625,37.613c10.839,0,19.625-1.875,19.625-4.188l-1.229-2c0,2.168-8.235,3.927-18.396,3.927  c-9.481,0-17.396-1.959-18.396-3.927l-1.229,2C0,35.738,8.787,37.613,19.625,37.613z"/>
<linearGradient gradientTransform="matrix(1 0 0 1 -370.2002 -614.5742)" x1="371.4297" x2="408.2217" gradientUnits="userSpaceOnUse" y1="646" y2="646" id="svg2.SVGID_3_">
	<stop offset="0" style="stop-color:#C9C9C9"/>
	<stop offset="1" style="stop-color:#808080"/>
</linearGradient>
<ellipse rx="18.396" fill="url(#svg2.SVGID_3_)" ry="3.926" cx="19.625" cy="31.425"/>
<linearGradient gradientTransform="matrix(1 0 0 1 -370.2002 -614.5742)" x1="370.2002" x2="409.4502" gradientUnits="userSpaceOnUse" y1="641.0938" y2="641.0938" id="svg2.SVGID_4_">
	<stop offset="0" style="stop-color:#4D4D4D"/>
	<stop offset="0.0558" style="stop-color:#5F5F5F"/>
	<stop offset="0.2103" style="stop-color:#8D8D8D"/>
	<stop offset="0.3479" style="stop-color:#AEAEAE"/>
	<stop offset="0.4623" style="stop-color:#C2C2C2"/>
	<stop offset="0.5394" style="stop-color:#C9C9C9"/>
	<stop offset="0.6247" style="stop-color:#C5C5C5"/>
	<stop offset="0.7072" style="stop-color:#BABABA"/>
	<stop offset="0.7885" style="stop-color:#A6A6A6"/>
	<stop offset="0.869" style="stop-color:#8B8B8B"/>
	<stop offset="0.9484" style="stop-color:#686868"/>
	<stop offset="1" style="stop-color:#4D4D4D"/>
</linearGradient>
<path fill="url(#svg2.SVGID_4_)" d="M19.625,23.613C8.787,23.613,0,21.738,0,19.425v10c0,2.313,8.787,4.188,19.625,4.188  c10.839,0,19.625-1.875,19.625-4.188v-10C39.25,21.738,30.464,23.613,19.625,23.613z"/>
<linearGradient gradientTransform="matrix(1 0 0 1 -370.2002 -614.5742)" x1="370.2002" x2="409.4502" gradientUnits="userSpaceOnUse" y1="635.0938" y2="635.0938" id="svg2.SVGID_5_">
	<stop offset="0" style="stop-color:#B3B3B3"/>
	<stop offset="0.0171" style="stop-color:#B6B6B6"/>
	<stop offset="0.235" style="stop-color:#D7D7D7"/>
	<stop offset="0.4168" style="stop-color:#EBEBEB"/>
	<stop offset="0.5394" style="stop-color:#F2F2F2"/>
	<stop offset="0.6579" style="stop-color:#EEEEEE"/>
	<stop offset="0.7724" style="stop-color:#E3E3E3"/>
	<stop offset="0.8853" style="stop-color:#CFCFCF"/>
	<stop offset="0.9965" style="stop-color:#B4B4B4"/>
	<stop offset="1" style="stop-color:#B3B3B3"/>
</linearGradient>
<path fill="url(#svg2.SVGID_5_)" d="M19.625,23.613c10.839,0,19.625-1.875,19.625-4.188l-1.229-2c0,2.168-8.235,3.926-18.396,3.926  c-9.481,0-17.396-1.959-18.396-3.926l-1.229,2C0,21.738,8.787,23.613,19.625,23.613z"/>
<linearGradient gradientTransform="matrix(1 0 0 1 -370.2002 -614.5742)" x1="371.4297" x2="408.2217" gradientUnits="userSpaceOnUse" y1="632" y2="632" id="svg2.SVGID_6_">
	<stop offset="0" style="stop-color:#C9C9C9"/>
	<stop offset="1" style="stop-color:#808080"/>
</linearGradient>
<ellipse rx="18.396" fill="url(#svg2.SVGID_6_)" ry="3.926" cx="19.625" cy="17.426"/>
<linearGradient gradientTransform="matrix(1 0 0 1 -370.2002 -614.5742)" x1="370.2002" x2="409.4502" gradientUnits="userSpaceOnUse" y1="627.5938" y2="627.5938" id="svg2.SVGID_7_">
	<stop offset="0" style="stop-color:#4D4D4D"/>
	<stop offset="0.0558" style="stop-color:#5F5F5F"/>
	<stop offset="0.2103" style="stop-color:#8D8D8D"/>
	<stop offset="0.3479" style="stop-color:#AEAEAE"/>
	<stop offset="0.4623" style="stop-color:#C2C2C2"/>
	<stop offset="0.5394" style="stop-color:#C9C9C9"/>
	<stop offset="0.6247" style="stop-color:#C5C5C5"/>
	<stop offset="0.7072" style="stop-color:#BABABA"/>
	<stop offset="0.7885" style="stop-color:#A6A6A6"/>
	<stop offset="0.869" style="stop-color:#8B8B8B"/>
	<stop offset="0.9484" style="stop-color:#686868"/>
	<stop offset="1" style="stop-color:#4D4D4D"/>
</linearGradient>
<path fill="url(#svg2.SVGID_7_)" d="M19.625,10.113C8.787,10.113,0,8.238,0,5.925v10c0,2.313,8.787,4.188,19.625,4.188  c10.839,0,19.625-1.875,19.625-4.188v-10C39.25,8.238,30.464,10.113,19.625,10.113z"/>
<linearGradient gradientTransform="matrix(1 0 0 1 -370.2002 -614.5742)" x1="370.2002" x2="409.4502" gradientUnits="userSpaceOnUse" y1="621.5938" y2="621.5938" id="svg2.SVGID_8_">
	<stop offset="0" style="stop-color:#B3B3B3"/>
	<stop offset="0.0171" style="stop-color:#B6B6B6"/>
	<stop offset="0.235" style="stop-color:#D7D7D7"/>
	<stop offset="0.4168" style="stop-color:#EBEBEB"/>
	<stop offset="0.5394" style="stop-color:#F2F2F2"/>
	<stop offset="0.6579" style="stop-color:#EEEEEE"/>
	<stop offset="0.7724" style="stop-color:#E3E3E3"/>
	<stop offset="0.8853" style="stop-color:#CFCFCF"/>
	<stop offset="0.9965" style="stop-color:#B4B4B4"/>
	<stop offset="1" style="stop-color:#B3B3B3"/>
</linearGradient>
<path fill="url(#svg2.SVGID_8_)" d="M19.625,10.113c10.839,0,19.625-1.875,19.625-4.188l-1.229-2c0,2.168-8.235,3.926-18.396,3.926  c-9.481,0-17.396-1.959-18.396-3.926L0,5.925C0,8.238,8.787,10.113,19.625,10.113z"/>
<linearGradient gradientTransform="matrix(1 0 0 1 -370.2002 -614.5742)" x1="371.4297" x2="408.2217" gradientUnits="userSpaceOnUse" y1="618.5" y2="618.5" id="svg2.SVGID_9_">
	<stop offset="0" style="stop-color:#C9C9C9"/>
	<stop offset="1" style="stop-color:#808080"/>
</linearGradient>
<ellipse rx="18.396" fill="url(#svg2.SVGID_9_)" ry="3.926" cx="19.625" cy="3.926"/>
<path fill="#FFFFFF" d="M31.291,46.792c0,0-4.313,0.578-7.249,0.694  C20.917,47.613,15,47.613,15,47.613l-2.443-10.279l-0.119-2.283l-1.231-1.842L9.789,23.024l-0.082-0.119L9.3,20.715l-1.45-1.44  L5.329,8.793c0,0,5.296,0.882,7.234,1.07s8.375,0.25,8.375,0.25l3,9.875l-0.25,1.313l1.063,2.168l2.312,9.644l-0.375,1.875  l1.627,2.193L31.291,46.792z" enable-background="new    " opacity="0.24"/>
</svg>
      </g>
    </g>
    <g text-rendering="geometricPrecision" stroke-miterlimit="1.45" shape-rendering="geometricPrecision" font-family="sans-serif" transform="matrix(1,0,0,1,-344,-452)" stroke-linecap="butt">
      <text x="900.3013" xml:space="preserve" y="938.4663" clip-path="url(#clipPath2)" stroke="none">ASaiM Database</text>
    </g>
    <g fill="url(#linearGradient1)" text-rendering="geometricPrecision" shape-rendering="geometricPrecision" transform="matrix(1,0,0,1,-344,-452)" stroke="url(#linearGradient1)">
      <rect x="1006.3016" y="467.5238" clip-path="url(#clipPath2)" width="119.424" rx="18.208" ry="18.208" height="36.416" stroke="none"/>
    </g>
    <g text-rendering="geometricPrecision" stroke-miterlimit="1.45" shape-rendering="geometricPrecision" transform="matrix(1,0,0,1,-344,-452)" stroke-linecap="butt">
      <rect x="1006.3016" y="467.5238" clip-path="url(#clipPath2)" fill="none" width="119.424" rx="18.208" ry="18.208" height="36.416"/>
      <text x="1031.6893" xml:space="preserve" y="483.2005" clip-path="url(#clipPath2)" font-family="sans-serif" stroke="none">Datasets in </text>
      <text x="1016.2704" xml:space="preserve" y="497.3333" clip-path="url(#clipPath2)" font-family="sans-serif" stroke="none">public databanks</text>
    </g>
    <g fill="url(#linearGradient2)" text-rendering="geometricPrecision" shape-rendering="geometricPrecision" transform="matrix(1,0,0,1,-344,-452)" stroke="url(#linearGradient2)">
      <rect x="898.9631" y="503.9398" clip-path="url(#clipPath2)" width="95.36" rx="11.552" ry="11.552" height="23.104" stroke="none"/>
    </g>
    <g text-rendering="geometricPrecision" stroke-miterlimit="1.45" shape-rendering="geometricPrecision" transform="matrix(1,0,0,1,-344,-452)" stroke-linecap="butt">
      <rect x="898.9631" y="503.9398" clip-path="url(#clipPath2)" fill="none" width="95.36" rx="11.552" ry="11.552" height="23.104"/>
      <text x="905.3873" xml:space="preserve" y="520.0269" clip-path="url(#clipPath2)" font-family="sans-serif" stroke="none">Local datasets</text>
    </g>
    <g fill="url(#linearGradient3)" text-rendering="geometricPrecision" shape-rendering="geometricPrecision" transform="matrix(1,0,0,1,-344,-452)" stroke="url(#linearGradient3)">
      <rect x="794.8247" y="474.1798" clip-path="url(#clipPath2)" width="95.36" rx="11.552" ry="11.552" height="23.104" stroke="none"/>
    </g>
    <g text-rendering="geometricPrecision" stroke-miterlimit="1.45" shape-rendering="geometricPrecision" transform="matrix(1,0,0,1,-344,-452)" stroke-linecap="butt">
      <rect x="794.8247" y="474.1798" clip-path="url(#clipPath2)" fill="none" width="95.36" rx="11.552" ry="11.552" height="23.104"/>
      <text x="803.241" xml:space="preserve" y="490.2669" clip-path="url(#clipPath2)" font-family="sans-serif" stroke="none">User datasets</text>
    </g>
    <g fill="url(#linearGradient4)" text-rendering="geometricPrecision" shape-rendering="geometricPrecision" transform="matrix(1,0,0,1,-344,-452)" stroke="url(#linearGradient4)">
      <path d="M889.8751 565.4918 L999.8751 565.4918 L999.8751 588.5958 L889.8751 588.5958 Z" stroke="none" clip-path="url(#clipPath2)"/>
    </g>
    <g text-rendering="geometricPrecision" stroke-miterlimit="1.45" shape-rendering="geometricPrecision" transform="matrix(1,0,0,1,-344,-452)" stroke-linecap="butt">
      <path fill="none" d="M889.8751 565.4918 L999.8751 565.4918 L999.8751 588.5958 L889.8751 588.5958 Z" clip-path="url(#clipPath2)"/>
      <text x="893.1896" xml:space="preserve" y="581.5789" clip-path="url(#clipPath2)" font-family="sans-serif" stroke="none">ASaiM Framework</text>
    </g>
    <g fill="url(#linearGradient5)" text-rendering="geometricPrecision" shape-rendering="geometricPrecision" transform="matrix(1,0,0,1,-344,-452)" stroke="url(#linearGradient5)">
      <path d="M909.1631 750.1478 L990.7871 750.1478 L980.5871 790.1478 L898.9631 790.1478 Z" stroke="none" clip-path="url(#clipPath2)"/>
    </g>
    <g text-rendering="geometricPrecision" stroke-miterlimit="1.45" shape-rendering="geometricPrecision" transform="matrix(1,0,0,1,-344,-452)" stroke-linecap="butt">
      <path fill="none" d="M909.1631 750.1478 L990.7871 750.1478 L980.5871 790.1478 L898.9631 790.1478 Z" clip-path="url(#clipPath2)"/>
      <text x="912.1066" xml:space="preserve" y="767.6165" clip-path="url(#clipPath2)" font-family="sans-serif" stroke="none">Microbiota </text>
      <text x="910.7677" xml:space="preserve" y="781.7493" clip-path="url(#clipPath2)" font-family="sans-serif" stroke="none">information</text>
    </g>
    <g fill="url(#linearGradient6)" text-rendering="geometricPrecision" shape-rendering="geometricPrecision" transform="matrix(1,0,0,1,-344,-452)" stroke="url(#linearGradient6)">
      <path d="M919.0431 820.1478 L974.2431 820.1478 L974.2431 843.2518 L919.0431 843.2518 Z" stroke="none" clip-path="url(#clipPath2)"/>
    </g>
    <g text-rendering="geometricPrecision" stroke-miterlimit="1.45" shape-rendering="geometricPrecision" transform="matrix(1,0,0,1,-344,-452)" stroke-linecap="butt">
      <path fill="none" d="M919.0431 820.1478 L974.2431 820.1478 L974.2431 843.2518 L919.0431 843.2518 Z" clip-path="url(#clipPath2)"/>
      <text x="926.2935" xml:space="preserve" y="836.2349" clip-path="url(#clipPath2)" font-family="sans-serif" stroke="none">Save in</text>
    </g>
    <g fill="url(#linearGradient7)" text-rendering="geometricPrecision" shape-rendering="geometricPrecision" transform="matrix(1,0,0,1,-344,-452)" stroke="url(#linearGradient7)">
      <path d="M698.8677 635.4918 L754.0677 635.4918 L754.0677 658.5958 L698.8677 658.5958 Z" stroke="none" clip-path="url(#clipPath2)"/>
    </g>
    <g text-rendering="geometricPrecision" stroke-miterlimit="1.45" shape-rendering="geometricPrecision" transform="matrix(1,0,0,1,-344,-452)" stroke-linecap="butt">
      <path fill="none" d="M698.8677 635.4918 L754.0677 635.4918 L754.0677 658.5958 L698.8677 658.5958 Z" clip-path="url(#clipPath2)"/>
      <text x="706.1562" xml:space="preserve" y="651.5789" clip-path="url(#clipPath2)" font-family="sans-serif" stroke="none">Submit</text>
    </g>
    <g fill="url(#linearGradient8)" text-rendering="geometricPrecision" shape-rendering="geometricPrecision" transform="matrix(1,0,0,1,-344,-452)" stroke="url(#linearGradient8)">
      <path d="M755.4477 758.5958 L810.6477 758.5958 L810.6477 781.6998 L755.4477 781.6998 Z" stroke="none" clip-path="url(#clipPath2)"/>
    </g>
    <g text-rendering="geometricPrecision" stroke-miterlimit="1.45" shape-rendering="geometricPrecision" transform="matrix(1,0,0,1,-344,-452)" stroke-linecap="butt">
      <path fill="none" d="M755.4477 758.5958 L810.6477 758.5958 L810.6477 781.6998 L755.4477 781.6998 Z" clip-path="url(#clipPath2)"/>
      <text x="760.2195" xml:space="preserve" y="774.6829" clip-path="url(#clipPath2)" font-family="sans-serif" stroke="none">Analyze</text>
    </g>
    <g fill="url(#linearGradient9)" text-rendering="geometricPrecision" shape-rendering="geometricPrecision" transform="matrix(1,0,0,1,-344,-452)" stroke="url(#linearGradient9)">
      <path d="M755.4477 811.6998 L839.503 811.6998 L839.503 848.1158 L755.4477 848.1158 Z" stroke="none" clip-path="url(#clipPath2)"/>
    </g>
    <g text-rendering="geometricPrecision" stroke-miterlimit="1.45" shape-rendering="geometricPrecision" transform="matrix(1,0,0,1,-344,-452)" stroke-linecap="butt">
      <path fill="none" d="M755.4477 811.6998 L839.503 811.6998 L839.503 848.1158 L755.4477 848.1158 Z" clip-path="url(#clipPath2)"/>
      <text x="778.2595" xml:space="preserve" y="827.3765" clip-path="url(#clipPath2)" font-family="sans-serif" stroke="none">Query </text>
      <text x="759.5154" xml:space="preserve" y="841.5093" clip-path="url(#clipPath2)" font-family="sans-serif" stroke="none">and compare</text>
    </g>
    <g text-rendering="geometricPrecision" shape-rendering="geometricPrecision" transform="matrix(0.9082,0,0,0.8884,14.9885,287.7743)">
      <g clip-path="url(#clipPath5)">
        <svg xmlns:svg="http://www.w3.org/2000/svg" xmlns:sodipodi="http://sodipodi.sourceforge.net/DTD/sodipodi-0.dtd" xmlns:inkscape="http://www.inkscape.org/namespaces/inkscape" xmlns:dc="http://purl.org/dc/elements/1.1/" xmlns:cc="http://web.resource.org/cc/" xmlns:rdf="http://www.w3.org/1999/02/22-rdf-syntax-ns#" opacity="1" writing-mode="lr-tb" stop-color="rgb(0, 0, 0)" shape-rendering="auto" glyph-orientation-horizontal="0deg" color-profile="auto" lighting-color="rgb(255, 255, 255)" color="rgb(0, 0, 0)" font-weight="400" alignment-baseline="auto" font-style="normal" version="1.0" color-interpolation-filters="linearrgb" text-anchor="start" stroke-linecap="butt" color-interpolation="srgb" font-variant="normal" word-spacing="normal" fill-opacity="1" text-rendering="auto" clip-path="none" text-decoration="none" letter-spacing="normal" glyph-orientation-vertical="auto" display="inline" font-size-adjust="none" overflow="visible" fill="rgb(0, 0, 0)" font-stretch="normal" stroke-dasharray="none" inkscape:version="0.45.1" id="svg3.svg2" stroke-miterlimit="4" stop-opacity="1" color-rendering="auto" font-size="12" sodipodi:docbase="C:\Daten\alberts\projects\yfx" pointer-events="visiblepainted" mask="none" direction="ltr" baseline-shift="baseline" sodipodi:docname="uml_actor.svg" enable-background="accumulate" fill-rule="nonzero" image-rendering="auto" stroke-dashoffset="0" inkscape:output_extension="org.inkscape.output.svg.inkscape" marker-end="none" width="41" clip="auto" cursor="auto" stroke="none" filter="none" visibility="visible" kerning="auto" stroke-width="1" font-family="&quot;Arial&quot;,&quot;Helvetica&quot;,sans-serif" flood-opacity="1" clip-rule="nonzero" src="none" height="68.997391" unicode-bidi="normal" sodipodi:version="0.32" stroke-linejoin="miter" stroke-opacity="1" flood-color="rgb(0, 0, 0)" dominant-baseline="auto" marker-start="none" marker-mid="none">
  <defs id="svg3.defs4"/>
  
  <metadata id="svg3.metadata7">
    
  </metadata>
  <g inkscape:groupmode="layer" id="svg3.layer1" transform="translate(-29.5,-42.959476)" inkscape:label="Ebene 1">
    <a id="svg3.a3142" transform="matrix(1.0873906,0,0,1,-4.4741999,0)">
      <path transform="translate(11.586889,5.2908993)" style="fill:none;fill-rule:evenodd;stroke:#000000;stroke-width:1px;stroke-linecap:butt;stroke-linejoin:miter;stroke-opacity:1" sodipodi:cx="38.509369" sodipodi:cy="47.36993" sodipodi:rx="8.5197716" id="svg3.path2160" d="M 47.02914 47.36993 A 8.5197716 9.2013531 0 1 1  29.989597,47.36993 A 8.5197716 9.2013531 0 1 1  47.02914 47.36993 z" sodipodi:ry="9.2013531" sodipodi:type="arc"/>
    </a>
    <path style="fill:none" sodipodi:cx="43.962021" sodipodi:cy="48.392303" d="M 47.71072 48.392303 A 3.7486994 0 0 1 1  40.213321,48.392303 A 3.7486994 0 0 1 1  47.71072 48.392303 z" id="svg3.path3134" sodipodi:rx="3.7486994" sodipodi:ry="0" sodipodi:type="arc"/>
    <path style="fill:none;fill-rule:evenodd;stroke:#000000;stroke-width:1.24319649px;stroke-linecap:butt;stroke-linejoin:miter;stroke-opacity:1" d="M 50,61.33709 C 50,91.363211 50,92.247838 50,92.247838" id="svg3.path3136"/>
    <path style="fill:none;fill-rule:evenodd;stroke:#000000;stroke-width:1px;stroke-linecap:butt;stroke-linejoin:miter;stroke-opacity:1" d="M 69.760668,72.362183 C 69.760668,72.362183 69.760668,72.362183 50.239332,72.362183 C 30.239332,72.362183 30.239332,72.362183 30.239332,72.362183 L 30.239332,72.362183" id="svg3.path3138"/>
    <path style="fill:none;fill-rule:evenodd;stroke:#000000;stroke-width:1px;stroke-linecap:butt;stroke-linejoin:miter;stroke-opacity:1" d="M 30,111.45687 C 30,111.45687 30,111.45687 50,92.013532 C 70,111.45687 70,111.45687 70,111.45687" id="svg3.path3140"/>
  </g>
</svg>
      </g>
    </g>
    <g font-size="13px" stroke-linecap="butt" transform="matrix(1,0,0,1,-344,-452)" text-rendering="geometricPrecision" font-family="sans-serif" shape-rendering="geometricPrecision" stroke-miterlimit="1.45">
      <text x="363.5078" xml:space="preserve" y="819.5161" clip-path="url(#clipPath2)" stroke="none">User</text>
    </g>
    <g fill="url(#linearGradient10)" text-rendering="geometricPrecision" shape-rendering="geometricPrecision" transform="matrix(1,0,0,1,-344,-452)" stroke="url(#linearGradient10)">
      <path d="M449.4214 758.5958 L544.7814 758.5958 L544.7814 781.6998 L449.4214 781.6998 Z" stroke="none" clip-path="url(#clipPath2)"/>
    </g>
    <g text-rendering="geometricPrecision" stroke-miterlimit="1.45" shape-rendering="geometricPrecision" transform="matrix(1,0,0,1,-344,-452)" stroke-linecap="butt">
      <path fill="none" d="M449.4214 758.5958 L544.7814 758.5958 L544.7814 781.6998 L449.4214 781.6998 Z" clip-path="url(#clipPath2)"/>
      <text x="456.9061" xml:space="preserve" y="774.6829" clip-path="url(#clipPath2)" font-family="sans-serif" stroke="none">Communicate</text>
    </g>
    <g fill="url(#linearGradient11)" text-rendering="geometricPrecision" shape-rendering="geometricPrecision" transform="matrix(1,0,0,1,-344,-452)" stroke="url(#linearGradient11)">
      <path d="M910.9311 627.0438 L989.0191 627.0438 L978.8191 667.0438 L900.7311 667.0438 Z" stroke="none" clip-path="url(#clipPath2)"/>
    </g>
    <g text-rendering="geometricPrecision" stroke-miterlimit="1.45" shape-rendering="geometricPrecision" transform="matrix(1,0,0,1,-344,-452)" stroke-linecap="butt">
      <path fill="none" d="M910.9311 627.0438 L989.0191 627.0438 L978.8191 667.0438 L900.7311 667.0438 Z" clip-path="url(#clipPath2)"/>
      <text x="920.9777" xml:space="preserve" y="644.5125" clip-path="url(#clipPath2)" font-family="sans-serif" stroke="none">Analysis</text>
      <text x="918.3556" xml:space="preserve" y="658.6453" clip-path="url(#clipPath2)" font-family="sans-serif" stroke="none">workflow</text>
    </g>
    <g fill="url(#linearGradient12)" text-rendering="geometricPrecision" shape-rendering="geometricPrecision" transform="matrix(1,0,0,1,-344,-452)" stroke="url(#linearGradient12)">
      <path d="M885.1631 697.0438 L1004.5871 697.0438 L1004.5871 720.1478 L885.1631 720.1478 Z" stroke="none" clip-path="url(#clipPath2)"/>
    </g>
    <g text-rendering="geometricPrecision" stroke-miterlimit="1.45" shape-rendering="geometricPrecision" transform="matrix(1,0,0,1,-344,-452)" stroke-linecap="butt">
      <path fill="none" d="M885.1631 697.0438 L1004.5871 697.0438 L1004.5871 720.1478 L885.1631 720.1478 Z" clip-path="url(#clipPath2)"/>
      <text x="892.756" xml:space="preserve" y="713.1309" clip-path="url(#clipPath2)" font-family="sans-serif" stroke="none">Apply on datasets</text>
    </g>
    <g text-rendering="geometricPrecision" stroke-miterlimit="1.45" shape-rendering="geometricPrecision" transform="matrix(1,0,0,1,-344,-452)" stroke-linecap="butt">
      <path fill="none" d="M1041.851 503.9451 L960.1933 565.4972" clip-path="url(#clipPath2)"/>
    </g>
    <g text-rendering="geometricPrecision" stroke-miterlimit="1.45" shape-rendering="geometricPrecision" transform="matrix(1,0,0,1,-344,-452)" stroke-linecap="butt">
      <path fill="none" d="M855.476 497.3018 L931.9323 565.4991" clip-path="url(#clipPath2)"/>
      <path fill="none" d="M946.3107 527.0628 L945.2074 565.4759" clip-path="url(#clipPath2)"/>
      <path fill="none" d="M945.4492 790.1342 L946.3109 820.1312" clip-path="url(#clipPath2)"/>
      <path fill="none" d="M946.6431 843.2205 L946.6431 865.2676" clip-path="url(#clipPath2)"/>
      <path d="M946.6431 873.2676 L951.6431 861.2676 L946.6431 864.2676 L941.6431 861.2676 Z" clip-path="url(#clipPath2)" stroke="none"/>
      <path fill="none" d="M649.0059 748.6587 L717.6738 658.5797" clip-path="url(#clipPath2)"/>
      <path fill="none" d="M734.7682 635.5046 L829.5477 503.7443" clip-path="url(#clipPath2)"/>
      <path d="M834.2193 497.25 L823.153 504.0717 L828.9637 504.5561 L831.2708 509.9112 Z" clip-path="url(#clipPath2)" stroke="none"/>
      <path fill="none" d="M667.1088 770.1478 L755.4499 770.1478" clip-path="url(#clipPath2)"/>
      <path fill="none" d="M810.6642 770.1478 L896.0811 770.1478" clip-path="url(#clipPath2)"/>
      <path d="M904.0811 770.1478 L892.0811 765.1478 L895.0811 770.1478 L892.0811 775.1478 Z" clip-path="url(#clipPath2)" stroke="none"/>
      <path fill="none" d="M667.116 782.6512 L755.4332 814.6671" clip-path="url(#clipPath2)"/>
      <path fill="none" d="M837.9357 848.1217 L919.7352 884.9452" clip-path="url(#clipPath2)"/>
      <path d="M927.0302 888.2291 L918.1403 878.7439 L918.8234 884.5347 L914.0353 887.8625 Z" clip-path="url(#clipPath2)" stroke="none"/>
      <path fill="none" d="M404.0729 770.1478 L449.399 770.1478" clip-path="url(#clipPath2)"/>
      <path d="M396.0729 770.1478 L408.0729 775.1478 L405.0729 770.1478 L408.0729 765.1478 Z" clip-path="url(#clipPath2)" stroke="none"/>
      <path fill="none" d="M544.7794 770.1478 L590.0955 770.1478" clip-path="url(#clipPath2)"/>
      <path d="M598.0955 770.1478 L586.0955 765.1478 L589.0955 770.1478 L586.0955 775.1478 Z" clip-path="url(#clipPath2)" stroke="none"/>
      <path fill="none" d="M944.8751 588.5623 L944.8751 619.0264" clip-path="url(#clipPath2)"/>
      <path d="M944.8751 627.0264 L949.8751 615.0264 L944.8751 618.0264 L939.8751 615.0264 Z" clip-path="url(#clipPath2)" stroke="none"/>
      <path fill="none" d="M944.8751 667.0302 L944.8751 697.0272" clip-path="url(#clipPath2)"/>
      <path fill="none" d="M944.8751 720.1668 L944.8751 742.1847" clip-path="url(#clipPath2)"/>
      <path d="M944.8751 750.1847 L949.8751 738.1847 L944.8751 741.1847 L939.8751 738.1847 Z" clip-path="url(#clipPath2)" stroke="none"/>
    </g>
  </g>
</svg>
